<svg width="260" height="261" viewBox="0 0 260 261" fill="none" xmlns="http://www.w3.org/2000/svg">
<circle cx="130" cy="130.026" r="130" fill="black"/>
<path d="M41.6224 98.9481C45.7023 98.3384 49.1486 99.1854 51.9614 101.489C54.8096 103.745 56.5789 107.183 57.2694 111.804L59.5183 126.854C59.9563 129.785 57.935 132.517 55.0034 132.955C52.0719 133.393 49.3403 131.372 48.9023 128.44L46.868 114.827C46.5196 112.495 45.6454 110.775 44.2452 109.665C42.8451 108.554 41.125 108.152 39.0851 108.457C37.0451 108.761 35.5179 109.649 34.5035 111.12C33.489 112.591 33.156 114.492 33.5043 116.824L35.5339 130.406C35.9745 133.355 33.9413 136.102 30.9925 136.543C28.0437 136.984 25.2961 134.95 24.8554 132.002L21.2442 107.835C20.8036 104.886 22.8368 102.138 25.7856 101.698L30.0146 101.066C30.6278 100.974 31.1991 101.397 31.2907 102.01C31.4528 103.094 33.1165 103.435 33.8982 102.666C34.42 102.153 35.0024 101.68 35.6454 101.246C37.3404 100.056 39.3327 99.2902 41.6224 98.9481Z" fill="white"/>
<path d="M63.6703 104.4C63.1353 100.819 63.3317 97.5768 64.2596 94.6717C65.229 91.7603 66.7706 89.4019 68.8842 87.5965C70.9979 85.791 73.491 84.6737 76.3635 84.2444C78.8198 83.8774 81.0384 84.0566 83.0195 84.782C83.6965 85.0227 84.3296 85.3057 84.9191 85.6309C85.8906 86.167 87.5057 85.3246 87.3417 84.2273C87.2519 83.6262 87.6663 83.0662 88.2674 82.9764L92.5183 82.3411C95.4671 81.9005 98.2147 83.9338 98.6554 86.8825L102.267 111.049C102.707 113.998 100.674 116.746 97.7252 117.187L93.5039 117.817C92.8865 117.91 92.3112 117.484 92.2189 116.866C92.0521 115.75 90.2718 115.411 89.4871 116.223C89.0018 116.724 88.4612 117.196 87.8654 117.638C86.1829 118.911 84.1135 119.731 81.6573 120.098C78.8263 120.521 76.1363 120.178 73.5872 119.07C71.0319 117.919 68.8652 116.094 67.087 113.593C65.3442 111.044 64.2053 107.98 63.6703 104.4ZM89.7825 100.562C89.3844 97.8973 88.3209 95.9069 86.592 94.5905C84.9047 93.2678 82.9994 92.7652 80.8762 93.0824C78.753 93.3997 77.0572 94.4405 75.7886 96.2048C74.5555 97.9213 74.138 100.112 74.5361 102.776C74.9342 105.44 75.9801 107.455 77.6736 108.819C79.4025 110.135 81.3285 110.635 83.4517 110.318C85.5749 110.001 87.25 108.963 88.4769 107.205C89.7455 105.44 90.1807 103.226 89.7825 100.562Z" fill="white"/>
<path d="M134.652 76.0452C137.601 75.6045 140.349 77.6378 140.789 80.5865L144.4 104.753C144.841 107.702 142.808 110.45 139.859 110.891L135.66 111.518C135.03 111.612 134.443 111.178 134.349 110.548C134.183 109.434 132.474 109.083 131.679 109.881C131.159 110.403 130.578 110.893 129.937 111.352C128.242 112.541 126.27 113.304 124.022 113.64C121.358 114.038 118.919 113.807 116.704 112.946C114.484 112.044 112.644 110.552 111.184 108.472C109.724 106.392 108.767 103.832 108.313 100.793L106.064 85.7436C105.626 82.812 107.647 80.0805 110.579 79.6424C113.51 79.2044 116.242 81.2257 116.68 84.1572L118.714 97.7707C119.062 100.102 119.937 101.823 121.337 102.933C122.737 104.043 124.457 104.446 126.497 104.141C128.579 103.83 130.127 102.939 131.141 101.468C132.156 99.9969 132.489 98.0958 132.14 95.7644L130.111 82.1822C129.67 79.2334 131.703 76.4858 134.652 76.0452Z" fill="white"/>
<path d="M170.226 91.2866C170.463 92.8731 169.37 94.3513 167.783 94.5884C166.197 94.8255 165.103 96.3037 165.34 97.8902L167.995 115.656C168.435 118.605 166.402 121.353 163.453 121.793C160.504 122.234 157.757 120.201 157.316 117.252L154.521 98.5492C154.362 97.48 153.365 96.7428 152.296 96.9026C151.227 97.0623 150.231 96.3251 150.071 95.256L149.324 90.2602C149.165 89.1911 149.902 88.1948 150.971 88.0351L151.908 87.8951C152.46 87.8126 152.84 87.2985 152.758 86.7467C152.117 82.4586 152.86 79.0278 154.986 76.4543C157.107 73.8392 160.54 72.177 165.286 71.4679C166.282 71.319 167.156 72.0229 167.305 73.0194L167.725 75.8275C168.089 78.265 165.84 79.9858 164.218 81.842C163.492 82.6741 163.265 84.0061 163.539 85.8379C163.565 86.0103 163.725 86.1292 163.898 86.1035L166.458 85.7209C168.044 85.4838 169.523 86.5777 169.76 88.1642L170.226 91.2866Z" fill="white"/>
<path d="M174.819 102.219C174.284 98.6391 174.481 95.3964 175.408 92.4913C176.378 89.58 177.919 87.2216 180.033 85.4161C182.147 83.6106 184.64 82.4933 187.512 82.064C189.969 81.697 192.187 81.8762 194.168 82.6016C194.845 82.8423 195.479 83.1253 196.068 83.4506C197.039 83.9866 198.655 83.1443 198.491 82.0469C198.401 81.4459 198.815 80.8858 199.416 80.796L203.667 80.1608C206.616 79.7201 209.364 81.7534 209.804 84.7022L213.416 108.869C213.856 111.818 211.823 114.566 208.874 115.006L204.653 115.637C204.035 115.729 203.46 115.304 203.368 114.686C203.201 113.57 201.421 113.231 200.636 114.042C200.151 114.544 199.61 115.016 199.014 115.458C197.332 116.731 195.262 117.551 192.806 117.918C189.975 118.341 187.285 117.998 184.736 116.889C182.181 115.739 180.014 113.914 178.236 111.413C176.493 108.864 175.354 105.8 174.819 102.219ZM200.931 98.3814C200.533 95.717 199.47 93.7265 197.741 92.4101C196.054 91.0875 194.148 90.5848 192.025 90.9021C189.902 91.2193 188.206 92.2601 186.938 94.0245C185.704 95.7409 185.287 97.9314 185.685 100.596C186.083 103.26 187.129 105.275 188.822 106.639C190.551 107.955 192.477 108.455 194.601 108.137C196.724 107.82 198.399 106.783 199.626 105.024C200.894 103.26 201.33 101.046 200.931 98.3814Z" fill="white"/>
<path d="M220.373 66.0453C223.322 65.6047 226.069 67.6379 226.51 70.5867L231.819 106.119C232.26 109.068 230.227 111.816 227.278 112.256C224.329 112.697 221.582 110.664 221.141 107.715L215.831 72.1824C215.391 69.2336 217.424 66.4859 220.373 66.0453Z" fill="white"/>
<path d="M52.6696 154.091C52.9067 155.678 51.8128 157.156 50.2263 157.393C48.6398 157.63 47.5459 159.108 47.7829 160.695L50.4377 178.461C50.8784 181.41 48.8451 184.157 45.8963 184.598C42.9476 185.039 40.1999 183.005 39.7593 180.057L36.9645 161.354C36.8048 160.285 35.8085 159.547 34.7394 159.707C33.6702 159.867 32.674 159.13 32.5142 158.061L31.7677 153.065C31.608 151.996 32.3452 150.999 33.4143 150.84L34.351 150.7C34.9028 150.617 35.2833 150.103 35.2009 149.551C34.5601 145.263 35.303 141.832 37.4296 139.259C39.5499 136.644 42.983 134.982 47.729 134.272C48.7255 134.124 49.5995 134.828 49.7484 135.824L50.168 138.632C50.5323 141.07 48.2831 142.79 46.6617 144.647C45.9348 145.479 45.7083 146.811 45.982 148.643C46.0078 148.815 46.1684 148.934 46.3409 148.908L48.9012 148.526C50.4877 148.288 51.966 149.382 52.203 150.969L52.6696 154.091Z" fill="white"/>
<path d="M58.5347 155.066C57.9997 151.486 58.1961 148.243 59.124 145.338C60.0935 142.427 61.635 140.068 63.7486 138.263C65.8623 136.458 68.3554 135.34 71.2279 134.911C73.6842 134.544 75.9029 134.723 77.884 135.449C78.5609 135.689 79.1941 135.972 79.7835 136.297C80.755 136.834 82.3701 135.991 82.2061 134.894C82.1163 134.293 82.5307 133.733 83.1318 133.643L87.3827 133.008C90.3315 132.567 93.0792 134.6 93.5198 137.549L97.1311 161.716C97.5717 164.665 95.5384 167.413 92.5897 167.853L88.3683 168.484C87.7509 168.576 87.1756 168.151 87.0834 167.533C86.9165 166.417 85.1363 166.078 84.3515 166.889C83.8662 167.391 83.3257 167.863 82.7298 168.305C81.0473 169.578 78.978 170.398 76.5217 170.765C73.6908 171.188 71.0008 170.845 68.4517 169.736C65.8963 168.586 63.7296 166.76 61.9514 164.26C60.2086 161.711 59.0697 158.647 58.5347 155.066ZM84.647 151.228C84.2488 148.564 83.1853 146.573 81.4564 145.257C79.7691 143.934 77.8639 143.432 75.7407 143.749C73.6175 144.066 71.9216 145.107 70.653 146.871C69.4199 148.588 69.0024 150.778 69.4005 153.443C69.7987 156.107 70.8445 158.121 72.538 159.486C74.2669 160.802 76.1929 161.302 78.3161 160.984C80.4393 160.667 82.1144 159.629 83.3413 157.871C84.6099 156.107 85.0451 153.893 84.647 151.228Z" fill="white"/>
<path d="M119.913 154.513C122.017 154.199 123.977 155.65 124.292 157.753L124.399 158.471C124.772 160.972 123.048 163.302 120.548 163.675L119.642 163.811C115.771 164.389 112.612 163.904 110.168 162.354C107.717 160.762 106.171 157.822 105.53 153.534L103.776 141.794C103.601 140.622 102.508 139.813 101.335 139.988C100.163 140.163 99.07 139.355 98.8948 138.182L98.2043 133.561C98.0291 132.389 98.8376 131.296 100.01 131.121C101.183 130.946 101.991 129.853 101.816 128.68L101.499 126.557C101.148 124.212 102.766 122.027 105.111 121.676L107.296 121.35C109.642 120.999 111.827 122.616 112.177 124.961L112.289 125.711C112.578 127.642 114.378 128.974 116.309 128.685C118.24 128.397 120.04 129.728 120.329 131.66L120.608 133.533C120.897 135.465 119.565 137.264 117.634 137.553C115.703 137.841 114.371 139.641 114.66 141.572L116.227 152.063C116.383 153.104 116.744 153.816 117.312 154.2C117.881 154.583 118.747 154.687 119.913 154.513Z" fill="white"/>
<path d="M147.18 123.689C151.177 123.092 154.581 123.945 157.394 126.249C160.201 128.511 161.949 131.952 162.64 136.573L164.888 151.623C165.326 154.555 163.305 157.286 160.374 157.724C157.442 158.162 154.71 156.141 154.272 153.209L152.238 139.596C151.89 137.265 151.016 135.544 149.615 134.434C148.215 133.324 146.495 132.921 144.455 133.226C142.415 133.531 140.888 134.418 139.874 135.889C138.859 137.36 138.526 139.262 138.874 141.593L140.904 155.175C141.345 158.124 139.311 160.872 136.363 161.312C133.414 161.753 130.666 159.72 130.226 156.771L124.916 121.238C124.475 118.29 126.509 115.542 129.457 115.101L130.941 114.88C133.07 114.561 135.055 116.03 135.373 118.159L136.324 124.525C136.593 126.325 139.579 127.038 141.078 126.006C142.815 124.81 144.849 124.038 147.18 123.689Z" fill="white"/>
<path d="M197.242 128.338C200.191 127.898 202.939 129.931 203.38 132.88L206.991 157.047C207.431 159.996 205.398 162.743 202.449 163.184L198.25 163.811C197.621 163.905 197.034 163.471 196.94 162.841C196.773 161.728 195.064 161.377 194.269 162.174C193.749 162.696 193.168 163.187 192.527 163.645C190.832 164.835 188.861 165.597 186.613 165.933C183.948 166.332 181.509 166.1 179.295 165.239C177.074 164.337 175.234 162.846 173.774 160.765C172.314 158.685 171.357 156.126 170.903 153.087L168.654 138.037C168.216 135.105 170.238 132.374 173.169 131.936C176.101 131.498 178.832 133.519 179.27 136.45L181.305 150.064C181.653 152.395 182.527 154.116 183.927 155.226C185.327 156.336 187.048 156.739 189.087 156.434C191.169 156.123 192.717 155.232 193.732 153.761C194.746 152.29 195.079 150.389 194.731 148.058L192.701 134.475C192.26 131.527 194.294 128.779 197.242 128.338Z" fill="white"/>
<path d="M221.129 126.129C221.327 127.453 223.369 127.825 224.275 126.839C224.748 126.325 225.259 125.848 225.81 125.41C226.045 125.217 226.286 125.033 226.532 124.86C229.113 123.043 232.181 125.321 232.647 128.442L233.053 131.159C233.295 132.78 232.178 134.29 230.557 134.532C227.892 134.931 225.981 135.812 224.823 137.177C223.659 138.5 223.291 140.598 223.721 143.47L225.34 154.305C225.78 157.254 223.747 160.001 220.798 160.442C217.849 160.883 215.102 158.849 214.661 155.901L211.05 131.734C210.609 128.785 212.642 126.037 215.591 125.596L219.6 124.998C220.335 124.888 221.019 125.394 221.129 126.129Z" fill="white"/>
<path d="M155.102 173.388C124.778 188.002 105.297 189.932 70.4926 179.7C67.8543 178.925 68.7202 175.055 71.4574 175.32C102.012 178.28 124.747 176.48 153.452 169.188C156.104 168.514 157.568 172.199 155.102 173.388Z" fill="white"/>
<path d="M157.168 173.217C125.216 188.616 104.688 190.65 68.0137 179.868C65.2336 179.051 66.1461 174.974 69.0303 175.253C101.226 178.372 125.183 176.475 155.429 168.791C158.224 168.081 159.767 171.964 157.168 173.217Z" fill="#FEC703"/>
</svg>
